<svg viewBox="0 0 80 80" xmlns="http://www.w3.org/2000/svg" xmlns:xlink="http://www.w3.org/1999/xlink" width="80.000000" height="80.000000" fill="none">
	<rect id="hp-2 logo" width="80.000000" height="80.000000" x="0.000000" y="0.000000" fill="rgb(255,255,255)" fill-opacity="0" />
	<path id="Vector" d="M40.0007 80C39.6031 80 39.2071 79.993 38.8118 79.9815L46.9866 57.5152L58.2366 57.5152C60.2112 57.5152 62.3788 55.9972 63.0542 54.1426L71.9227 29.7822C73.3738 25.7939 71.0894 22.5309 66.8455 22.5309L51.2381 22.5309L38.1433 58.5154L38.1383 58.5154L30.7142 78.9141C13.1014 74.727 0.000671387 58.8941 0.000671387 40C0.000671387 21.6509 12.3562 6.18889 29.2012 1.47667L21.541 22.5309L21.5388 22.5309L8.80437 57.5152L17.2816 57.5159L28.1112 27.7881L34.4825 27.7881L23.6529 57.5159L32.127 57.5174L42.2192 29.7822C43.671 25.7939 41.3864 22.5309 37.1464 22.5309L30.0205 22.5309L38.2025 0.042037C38.7988 0.0155556 39.3977 0 40.0003 0C62.0918 0 80.0003 17.9085 80.0003 40C80.0003 62.0913 62.0918 80 40.0003 80L40.0007 80ZM64.2029 27.7667L57.8334 27.7667L48.9136 52.2404L55.2833 52.2404L64.2029 27.7667Z" fill="rgb(0,0,0)" fill-rule="nonzero" />
</svg>
