<svg viewBox="0 0 28.3636 30" xmlns="http://www.w3.org/2000/svg" xmlns:xlink="http://www.w3.org/1999/xlink" width="28.363647" height="30.000000" fill="none">
	<rect id="twitch logo" width="28.363636" height="30.000000" x="0.000000" y="0.000000" fill="rgb(255,255,255)" fill-opacity="0" />
	<path id="Vector" d="M1.99095 -0.00479126L-0.00378418 5.14476L-0.00378418 26.1916L7.08713 26.1916L7.08713 29.9952L11.0766 29.9952L14.8407 26.1916L20.6062 26.1916L28.3599 18.3568L28.3599 -0.00479126L1.99095 -0.00479126ZM25.7024 17.0108L21.2689 21.4907L14.178 21.4907L10.4139 25.2943L10.4139 21.4907L4.42969 21.4907L4.42969 2.68048L25.7024 2.68048L25.7024 17.0108ZM21.2689 7.83003L21.2689 15.6582L18.6115 15.6582L18.6115 7.83003L21.2689 7.83003ZM14.178 7.83003L14.178 15.6582L11.5206 15.6582L11.5206 7.83003L14.178 7.83003Z" fill="rgb(0,0,0)" fill-rule="nonzero" />
</svg>
