<svg viewBox="0 0 132 132" xmlns="http://www.w3.org/2000/svg" xmlns:xlink="http://www.w3.org/1999/xlink" width="132.000000" height="132.000000" fill="none" customFrame="#000000">
	<g id="Group 215">
		<path id="Vector" d="M117.36 48.4629L119.4 25.2686L97.74 20.1143L86.4 0L66 9.17714L45.6 0L34.26 20.0514L12.6 25.1429L14.64 48.4L0 66L14.64 83.5371L12.6 106.794L34.26 111.949L45.6 132L66 122.76L86.4 131.937L97.74 111.886L119.4 106.731L117.36 83.5371L132 66L117.36 48.4629ZM126.789 66L113.231 49.7581L113.375 48.1124L115.113 28.36L95.1139 23.6011L84.7096 5.14655L66 13.5633L47.2859 5.14453L36.8798 23.5446L16.8874 28.2441L18.7686 49.6915L5.20676 65.9954L18.769 82.2415L16.8865 103.703L36.883 108.461L47.2813 126.847L65.9944 118.371L84.7141 126.793L95.117 108.398L115.113 103.64L113.231 82.242L126.789 66Z" fill="rgb(248,242,0)" fill-rule="evenodd" />
		<path id="акция" d="M13.2 23.9L13.2 15.65C13.2 12.35 11.55 10.7 8.25 10.7L0.6 10.7L0.6 14L8.25 14C9.35 14 9.9 14.54 9.9 15.62L9.9 15.65L4.14 15.65C1.38 15.65 0 17 0 19.7C0 22.5 1.38 23.9 4.14 23.9L13.2 23.9ZM3.3 19.76C3.3 19.22 3.58 18.95 4.14 18.95L9.9 18.95L9.9 20.6L4.14 20.6C3.58 20.6 3.3 20.32 3.3 19.76ZM29.85 23.9L25.14 23.9L19.95 18.95L18.3 18.95L18.3 23.9L15 23.9L15 10.7L18.3 10.7L18.3 15.65L19.95 15.65L25.17 10.7L29.85 10.7L23.1 17.3L29.85 23.9ZM40.6617 10.7L40.6617 20.6L35.7117 20.6C34.6117 20.6 34.0617 20.05 34.0617 18.95L34.0617 10.7L30.7617 10.7L30.7617 18.95C30.7617 22.25 32.4117 23.9 35.7117 23.9L42.3117 23.9L42.3117 27.2L45.7617 27.2L45.7617 20.6L43.9617 20.6L43.9617 10.7L40.6617 10.7ZM59.8699 23.9L56.5699 23.9L56.5699 22.49C54.8699 23.63 53.2199 24.2 51.6199 24.2C48.3199 24.2 46.6699 22.55 46.6699 19.25L46.6699 10.7L49.9699 10.7L49.9699 19.25C49.9699 20.33 50.5199 20.88 51.6199 20.9C53.8199 20.62 55.4699 19.57 56.5699 17.75L56.5699 10.7L59.8699 10.7L59.8699 23.9ZM61.6699 14.9C61.6699 12.1 63.0499 10.7 65.8099 10.7L74.8699 10.7L74.8699 23.9L71.5699 23.9L71.5699 18.95L70.0999 18.95L65.9599 23.9L61.6699 23.9L65.8099 18.95C63.0499 18.95 61.6699 17.6 61.6699 14.9ZM71.5699 14L65.8099 14C65.2499 14 64.9699 14.3 64.9699 14.9C64.9699 15.4 65.2499 15.65 65.8099 15.65L71.5699 15.65L71.5699 14Z" fill="rgb(248,242,0)" fill-rule="nonzero" transform="matrix(0.707107,-0.707107,0.707107,0.707107,28,82.4473)" />
	</g>
</svg>
